<svg width="302" height="302" viewBox="0 0 302 302" fill="none" xmlns="http://www.w3.org/2000/svg">
<path d="M252 0C279.614 8.37858e-05 302 22.3858 302 50V252C302 279.614 279.614 302 252 302H119.586L202.354 211.768C206.087 207.698 205.814 201.372 201.744 197.639C197.801 194.022 191.742 194.164 187.973 197.877L187.615 198.248L92.4463 302H58.1279L170.946 189.066C174.85 185.159 174.847 178.827 170.939 174.924C167.032 171.021 160.7 171.024 156.797 174.932L32.8682 298.986C28.908 297.542 25.1828 295.61 21.7627 293.266C22.7771 292.854 23.739 292.27 24.6016 291.511L24.9795 291.161L204.691 116.011L203.844 181.864C203.773 187.386 208.193 191.921 213.715 191.992C219.237 192.063 223.772 187.643 223.843 182.121L224.999 92.1279C225.07 86.6058 220.65 82.071 215.128 82L125.135 80.8438C119.613 80.7733 115.079 85.1928 115.008 90.7148C114.937 96.2372 119.357 100.772 124.879 100.843L190.731 101.69L11.0205 276.839L10.6611 277.207C9.81838 278.116 9.17707 279.145 8.73438 280.237C5.82147 275.989 3.54502 271.269 2.04883 266.214L124.927 148.213C128.91 144.387 129.038 138.057 125.213 134.073C121.387 130.09 115.057 129.962 111.073 133.787L0 240.452V50C2.25521e-06 22.3858 22.3858 0 50 0H252ZM186 151C179.925 151 175 155.925 175 162C175 168.075 179.925 173 186 173C192.075 173 197 168.075 197 162C197 155.925 192.075 151 186 151ZM137 108C130.925 108 126 112.925 126 119C126 125.075 130.925 130 137 130C143.075 130 148 125.075 148 119C148 112.925 143.075 108 137 108Z" fill="#2AE899"/>
</svg>
